<?xml version="1.0" encoding="UTF-8" standalone="no" ?>
<!DOCTYPE svg PUBLIC "-//W3C//DTD SVG 1.1//EN" "http://www.w3.org/Graphics/SVG/1.1/DTD/svg11.dtd">
<svg xmlns="http://www.w3.org/2000/svg" xmlns:xlink="http://www.w3.org/1999/xlink" version="1.1" width="1080" height="1080" viewBox="0 0 1080 1080" xml:space="preserve">
<desc>Created with Fabric.js 5.2.4</desc>
<defs>
</defs>
<g transform="matrix(1 0 0 1 540 540)" id="aafcfbd0-4ea0-480b-96ab-b119869e9322"  >
<rect style="stroke: none; stroke-width: 1; stroke-dasharray: none; stroke-linecap: butt; stroke-dashoffset: 0; stroke-linejoin: miter; stroke-miterlimit: 4; fill: rgb(255,255,255); fill-rule: nonzero; opacity: 1;" vector-effect="non-scaling-stroke"  x="-540" y="-540" rx="0" ry="0" width="1080" height="1080" />
</g>
<g transform="matrix(1 0 0 1 540 540)" id="483e9fb7-696d-4f30-96d9-2764b689778a"  >
</g>
<g transform="matrix(NaN NaN NaN NaN 0 0)"  >
<g style=""   >
</g>
</g>
<g transform="matrix(1 0 0 1 540 540)"  >
<g style="" vector-effect="non-scaling-stroke"   >
		<g transform="matrix(0.13 0 0 -0.13 0 -2.63)"  >
<path style="stroke: none; stroke-width: 1; stroke-dasharray: none; stroke-linecap: butt; stroke-dashoffset: 0; stroke-linejoin: miter; stroke-miterlimit: 4; fill: rgb(0,0,0); fill-rule: nonzero; opacity: 1;" vector-effect="non-scaling-stroke"  transform=" translate(-4820.35, -4975.43)" d="M 4700 8969 C 4302 8924 3907 8791 3572 8589 L 3460 8520 L 3412 8554 C 3286 8644 3188 8674 3036 8668 C 2944 8664 2914 8659 2860 8637 C 2704 8572 2595 8449 2534 8270 C 2519 8227 2515 8187 2516 8080 C 2516 7943 2524 7901 2568 7810 C 2587 7771 2678 7650 2688 7650 C 2692 7650 2707 7639 2722 7626 L 2748 7601 L 2686 7477 C 2629 7364 2580 7231 2544 7094 C 2537 7065 2519 7025 2504 7004 C 2473 6957 2397 6809 2369 6738 C 2328 6633 2290 6442 2290 6337 C 2290 6246 2330 6042 2367 5942 C 2410 5827 2530 5609 2576 5562 C 2584 5555 2590 5544 2590 5539 C 2590 5524 2433 5214 2340 5045 C 2250 4880 2156 4691 2115 4590 C 2089 4524 2084 4513 2057 4450 C 2049 4431 2021 4352 1996 4275 C 1878 3912 1818 3579 1804 3202 C 1800 3107 1794 3032 1789 3037 C 1773 3053 1701 3248 1665 3370 C 1508 3907 1404 4310 1351 4580 C 1304 4827 1305 4809 1337 4815 C 1482 4842 1557 4873 1648 4941 C 1752 5020 1856 5174 1895 5310 C 1918 5390 1926 5506 1910 5525 C 1892 5547 1841 5543 1759 5514 C 1620 5464 1479 5363 1400 5255 C 1358 5199 1300 5089 1300 5066 C 1300 5059 1294 5050 1287 5047 C 1272 5041 1248 5229 1229 5504 C 1205 5850 1264 6300 1364 6527 C 1389 6583 1396 6608 1388 6617 C 1367 6643 1352 6629 1312 6548 C 1212 6347 1183 6198 1171 5825 C 1160 5507 1174 5273 1224 4930 C 1253 4733 1330 4351 1370 4210 C 1375 4191 1389 4137 1401 4090 C 1423 3996 1435 3953 1475 3805 C 1490 3750 1506 3687 1512 3666 C 1517 3644 1536 3575 1555 3511 C 1574 3447 1593 3377 1599 3355 C 1633 3212 1639 3195 1786 2881 C 1814 2823 1830 2774 1830 2750 C 1830 2637 1902 2336 1980 2122 C 2008 2047 2030 1982 2030 1978 C 2030 1973 1997 1970 1957 1970 C 1861 1970 1856 1975 1815 2130 C 1794 2207 1771 2275 1753 2310 C 1729 2357 1739 2302 1774 2197 C 1812 2081 1828 1990 1811 1990 C 1804 1990 1796 1998 1793 2008 C 1780 2043 1680 2169 1607 2243 C 1485 2366 1345 2455 1184 2513 C 1039 2565 950 2569 933 2523 C 922 2495 959 2371 1010 2263 C 1042 2196 1054 2160 1046 2160 C 1038 2160 1008 2171 979 2185 C 850 2244 731 2253 670 2210 C 645 2192 641 2184 646 2162 C 662 2095 713 2019 809 1916 L 865 1856 L 835 1844 C 818 1837 796 1831 785 1830 C 774 1830 713 1817 650 1801 C 532 1772 470 1747 412 1703 C 383 1681 379 1674 382 1637 C 384 1604 391 1592 416 1575 C 478 1533 711 1473 935 1441 C 974 1435 1082 1419 1175 1405 C 1672 1329 2109 1311 2388 1356 C 2489 1372 2492 1372 2513 1352 C 2525 1341 2573 1307 2620 1277 C 2885 1106 3178 1013 3525 989 C 3602 984 3694 977 3729 974 C 3776 970 3808 973 3849 986 C 3880 996 3919 1003 3936 1001 C 3981 998 4046 1027 4120 1083 L 4185 1132 L 4265 1126 C 4852 1077 5304 1122 5678 1267 L 5771 1303 L 5888 1268 C 6153 1187 6323 1162 6667 1153 C 6901 1147 6910 1148 6960 1169 C 6988 1181 7041 1200 7078 1211 C 7174 1241 7235 1277 7267 1323 C 7293 1360 7295 1371 7295 1454 C 7295 1536 7292 1550 7266 1598 C 7213 1693 7067 1809 6967 1833 C 6952 1837 6940 1846 6940 1853 C 6940 1869 7006 2030 7017 2041 C 7037 2061 7759 1998 8105 1945 C 8332 1911 8744 1830 8845 1800 C 8862 1795 8900 1783 8930 1775 C 8995 1756 9005 1752 9091 1711 C 9127 1694 9165 1671 9175 1660 C 9192 1641 9192 1640 9149 1622 C 9005 1560 8802 1530 8425 1515 C 8343 1511 8271 1505 8267 1500 C 8262 1496 8261 1483 8265 1471 C 8271 1451 8277 1450 8442 1450 C 8765 1450 9182 1521 9237 1585 C 9262 1614 9267 1667 9248 1692 C 9197 1754 9020 1830 8820 1875 C 8721 1897 8680 1910 8680 1918 C 8680 1922 8711 1948 8748 1975 C 8880 2073 8980 2182 8980 2228 C 8980 2238 8971 2255 8959 2266 C 8941 2282 8922 2285 8826 2285 C 8730 2284 8704 2280 8635 2256 C 8591 2241 8549 2223 8542 2218 C 8510 2191 8521 2229 8573 2329 C 8632 2440 8657 2527 8645 2579 C 8631 2645 8526 2646 8352 2583 C 8329 2574 8307 2569 8304 2572 C 8301 2575 8325 2602 8356 2631 C 8517 2783 8566 2836 8671 2971 C 8931 3303 9096 3697 9117 4030 C 9122 4117 9121 4127 9100 4152 C 9072 4188 9026 4189 8897 4155 C 8714 4108 8545 4027 8375 3905 C 8336 3878 8279 3834 8246 3807 C 8214 3781 8186 3761 8184 3763 C 8182 3765 8193 3800 8209 3841 C 8392 4318 8500 4840 8500 5251 C 8500 5378 8477 5644 8460 5710 C 8455 5729 8444 5774 8435 5810 C 8396 5965 8346 6062 8310 6053 C 8299 6050 8290 6045 8290 6041 C 8290 6037 8303 5997 8320 5953 C 8450 5595 8470 5178 8379 4685 C 8356 4560 8299 4317 8270 4220 C 8102 3664 8119 3701 7916 3422 C 7886 3381 7854 3333 7844 3314 C 7810 3251 7803 3269 7789 3444 C 7779 3585 7758 3706 7737 3749 C 7726 3771 7718 3775 7682 3774 C 7634 3773 7614 3758 7541 3665 C 7470 3575 7424 3493 7395 3405 C 7372 3335 7371 3325 7385 3311 C 7404 3292 7408 3296 7461 3400 C 7543 3563 7653 3712 7678 3696 C 7690 3689 7703 3622 7702 3570 C 7702 3550 7689 3500 7675 3459 C 7485 2930 7424 2693 7373 2290 L 7364 2225 L 7308 2335 C 7277 2396 7232 2479 7207 2521 L 7162 2597 L 7168 2709 C 7175 2873 7155 3017 7075 3375 C 7050 3488 7020 3653 7020 3682 C 7020 3701 7026 3711 7043 3716 C 7128 3742 7227 3846 7280 3964 C 7325 4064 7335 4122 7334 4280 C 7333 4546 7256 4775 7062 5095 C 6968 5249 6971 5239 7011 5272 C 7110 5357 7221 5461 7263 5510 C 7408 5678 7499 5870 7541 6093 C 7552 6155 7566 6228 7571 6255 C 7582 6312 7574 6431 7555 6505 C 7527 6611 7467 6778 7435 6837 C 7402 6897 7393 6910 7338 6974 C 7284 7038 7229 7116 7209 7156 C 7198 7179 7174 7260 7155 7336 C 7115 7495 7073 7605 6987 7772 L 6928 7889 L 6953 7932 C 7047 8094 7040 8327 6934 8502 C 6783 8750 6488 8821 6254 8666 L 6202 8631 L 6158 8659 C 5910 8817 5566 8932 5235 8970 C 5130 8982 4809 8981 4700 8969 z M 5256 8895 C 5623 8847 5968 8715 6239 8521 C 6607 8256 6858 7937 7021 7527 C 7064 7421 7118 7215 7107 7204 C 7103 7200 7088 7202 7074 7209 C 7015 7235 7031 7212 7179 7051 C 7292 6927 7333 6871 7380 6778 C 7432 6676 7468 6574 7491 6465 C 7516 6346 7516 6326 7490 6333 C 7471 6338 7470 6333 7471 6236 C 7472 6025 7426 5877 7298 5683 C 7171 5489 6934 5277 6705 5151 C 6633 5111 6580 5072 6580 5059 C 6580 5028 6696 5068 6815 5139 C 6861 5167 6901 5190 6904 5190 C 6912 5190 6998 5059 7058 4955 C 7150 4794 7223 4602 7250 4446 C 7265 4359 7262 4192 7245 4109 C 7193 3864 7016 3726 6775 3743 C 6696 3749 6594 3773 6575 3791 C 6570 3797 6581 3815 6605 3840 C 6634 3870 6640 3880 6627 3880 C 6593 3880 6511 3830 6401 3742 C 6276 3642 6218 3610 6153 3602 L 6109 3597 L 6116 3626 C 6119 3642 6136 3680 6153 3710 C 6221 3835 6240 3875 6240 3892 C 6240 3915 6233 3915 6193 3891 C 6155 3867 6121 3812 6080 3703 C 6062 3657 6044 3617 6038 3614 C 6023 3604 5971 3660 5960 3698 C 5945 3756 5967 3834 6032 3954 C 6053 3992 6070 4026 6070 4031 C 6070 4043 6009 4023 5988 4003 C 5964 3982 5929 3919 5914 3871 C 5908 3852 5898 3834 5892 3832 C 5863 3823 5888 4142 5920 4185 C 5924 4191 5935 4215 5944 4240 C 5988 4352 6136 4532 6272 4636 C 6339 4688 6452 4756 6533 4793 C 6584 4816 6601 4836 6584 4853 C 6573 4864 6406 4799 6325 4752 C 6147 4648 6017 4519 5921 4349 C 5843 4210 5808 4080 5807 3920 C 5805 3766 5830 3692 5917 3583 C 5958 3533 5992 3520 6080 3520 C 6201 3520 6339 3582 6448 3684 L 6501 3734 L 6543 3722 C 6667 3686 6769 3669 6855 3672 L 6945 3675 L 6944 3480 C 6943 3228 6922 3059 6860 2820 C 6735 2337 6462 1889 6125 1615 C 6019 1529 5898 1448 5800 1397 C 5674 1332 5392 1242 5247 1221 C 5213 1216 5154 1207 5115 1201 C 4950 1177 4735 1170 4520 1180 C 4402 1186 4289 1194 4270 1198 L 4235 1206 L 4230 1280 C 4223 1369 4190 1447 4135 1509 L 4097 1550 L 4126 1668 C 4153 1775 4155 1799 4154 1960 C 4154 2102 4149 2153 4132 2230 C 4059 2549 3925 2797 3715 3003 C 3585 3131 3466 3212 3251 3319 C 3110 3389 2950 3440 2950 3413 C 2950 3405 3091 3320 3105 3320 C 3119 3320 3364 3195 3412 3163 C 3708 2964 3926 2682 4025 2369 C 4079 2199 4085 2156 4085 1965 C 4084 1811 4081 1773 4062 1700 C 4050 1654 4035 1611 4030 1606 C 4024 1600 4000 1606 3963 1623 C 3766 1714 3528 1704 3326 1597 C 3252 1557 3229 1537 3244 1523 C 3248 1519 3274 1526 3303 1539 C 3418 1589 3586 1630 3677 1630 C 3730 1630 3860 1607 3895 1591 C 3995 1546 4020 1531 4057 1494 C 4135 1416 4169 1312 4146 1221 C 4139 1196 4130 1177 4124 1180 C 4119 1183 4108 1215 4098 1252 C 4079 1326 4063 1360 4026 1405 C 4004 1432 4000 1433 3986 1420 C 3972 1406 3973 1398 3999 1335 C 4056 1200 4048 1105 3978 1076 C 3935 1058 3927 1064 3935 1109 C 3951 1203 3865 1405 3817 1387 C 3794 1378 3796 1348 3820 1304 C 3831 1285 3847 1241 3855 1208 C 3867 1155 3867 1143 3853 1108 C 3829 1049 3761 1023 3707 1052 C 3673 1070 3663 1088 3630 1190 C 3602 1276 3563 1340 3538 1340 C 3518 1340 3533 1262 3570 1176 C 3592 1125 3610 1077 3610 1070 C 3610 1060 3584 1058 3492 1063 C 3427 1066 3354 1073 3329 1079 C 3305 1085 3242 1099 3190 1110 C 3022 1148 2809 1239 2671 1332 C 2592 1385 2487 1471 2447 1514 C 2110 1878 1945 2283 1895 2865 C 1876 3091 1876 3205 1896 3422 C 1922 3713 1986 4019 2074 4270 C 2089 4311 2110 4372 2121 4405 C 2133 4438 2150 4483 2160 4505 C 2170 4527 2190 4574 2205 4610 C 2234 4680 2336 4883 2395 4990 C 2466 5118 2519 5217 2579 5338 C 2613 5405 2645 5460 2651 5460 C 2656 5460 2692 5430 2730 5393 C 2793 5332 2877 5274 2888 5285 C 2895 5292 2827 5384 2769 5445 C 2597 5627 2493 5829 2455 6053 C 2450 6085 2446 6089 2434 6080 C 2426 6073 2420 6059 2420 6049 C 2420 6027 2405 6024 2397 6045 C 2393 6053 2386 6108 2379 6167 C 2340 6526 2456 6871 2693 7103 C 2758 7166 2757 7175 2688 7131 C 2663 7115 2640 7104 2637 7106 C 2631 7112 2653 7213 2675 7275 C 2702 7355 2765 7480 2814 7554 C 2839 7591 2860 7623 2860 7625 C 2860 7626 2838 7642 2810 7660 C 2539 7834 2500 8219 2730 8451 C 2834 8555 2934 8600 3064 8600 C 3193 8600 3297 8555 3428 8443 L 3478 8400 L 3504 8435 C 3540 8482 3643 8548 3809 8630 C 4096 8773 4374 8858 4675 8895 C 4817 8913 5124 8913 5256 8895 z M 6631 8661 C 6745 8625 6837 8542 6895 8422 C 6930 8349 6953 8227 6945 8155 C 6938 8095 6906 7983 6890 7966 C 6885 7961 6865 7983 6844 8016 C 6810 8070 6766 8126 6643 8273 C 6619 8301 6600 8329 6600 8336 C 6600 8352 6624 8360 6675 8360 C 6712 8360 6722 8355 6754 8320 C 6774 8298 6790 8273 6790 8265 C 6790 8257 6795 8250 6800 8250 C 6806 8250 6810 8236 6810 8218 C 6810 8195 6813 8189 6821 8197 C 6837 8213 6804 8302 6764 8348 C 6744 8371 6711 8396 6686 8405 C 6642 8422 6619 8420 6535 8396 C 6520 8391 6493 8408 6429 8462 C 6382 8502 6329 8547 6310 8561 C 6271 8591 6274 8602 6333 8632 C 6428 8681 6533 8691 6631 8661 z M 1860 5463 C 1859 5436 1816 5287 1795 5243 C 1742 5126 1654 5021 1553 4954 C 1491 4913 1382 4870 1339 4870 C 1308 4870 1308 4870 1315 4912 C 1352 5130 1540 5352 1767 5446 C 1826 5470 1860 5476 1860 5463 z M 9045 4023 C 9016 3659 8833 3262 8536 2921 C 8446 2819 8281 2662 8097 2506 C 7904 2343 7782 2223 7710 2127 C 7670 2073 7664 2069 7636 2074 C 7619 2078 7602 2084 7598 2088 C 7582 2104 7651 2326 7730 2521 C 7761 2595 7782 2662 7777 2667 C 7757 2686 7632 2362 7571 2133 C 7560 2092 7559 2092 7509 2088 C 7481 2087 7453 2088 7447 2092 C 7440 2096 7439 2139 7443 2223 C 7453 2424 7487 2620 7557 2875 C 7592 3004 7710 3356 7725 3377 C 7759 3423 7756 3138 7721 2998 C 7711 2956 7699 2917 7695 2911 C 7692 2905 7692 2900 7697 2900 C 7701 2900 7731 2951 7763 3013 C 7993 3462 8211 3726 8496 3901 C 8684 4016 8914 4108 9018 4109 L 9052 4110 L 9045 4023 z M 7061 3120 C 7102 2936 7089 2591 7033 2365 C 7000 2231 6908 1965 6870 1895 C 6854 1867 6849 1865 6771 1858 C 6726 1854 6665 1846 6636 1840 C 6572 1827 6477 1772 6472 1746 C 6469 1731 6472 1729 6486 1735 C 6590 1780 6648 1793 6755 1793 C 6816 1793 6885 1788 6910 1781 C 7030 1747 7132 1674 7184 1586 C 7207 1547 7229 1470 7217 1470 C 7214 1470 7199 1497 7184 1530 C 7157 1591 7131 1616 7105 1606 C 7094 1602 7099 1579 7127 1499 C 7167 1382 7167 1339 7125 1303 C 7084 1267 7074 1273 7066 1341 C 7058 1418 7029 1485 6982 1533 C 6942 1574 6929 1578 6910 1555 C 6899 1542 6903 1531 6932 1487 C 6985 1407 7002 1339 6984 1274 C 6976 1244 6918 1220 6855 1220 L 6800 1220 L 6800 1258 C 6799 1305 6777 1408 6761 1440 C 6742 1475 6699 1520 6683 1520 C 6661 1520 6668 1474 6705 1379 C 6724 1329 6740 1272 6740 1252 L 6740 1217 L 6588 1223 C 6444 1229 6284 1247 6160 1269 C 6048 1290 5890 1334 5890 1344 C 5891 1350 5931 1381 5980 1413 C 6273 1604 6539 1910 6720 2265 C 6872 2563 6963 2856 7000 3168 C 7016 3306 7021 3302 7061 3120 z M 8580 2550 C 8580 2544 8571 2511 8559 2477 C 8504 2312 8297 1990 8246 1990 C 8202 1990 8110 2013 8110 2024 C 8110 2030 8151 2076 8201 2125 C 8287 2211 8338 2275 8327 2286 C 8325 2289 8303 2267 8279 2238 C 8227 2177 8138 2088 8093 2053 L 8060 2028 L 7913 2045 C 7831 2054 7762 2065 7758 2068 C 7745 2081 7912 2250 8014 2327 C 8129 2414 8293 2497 8420 2534 C 8509 2560 8580 2567 8580 2550 z M 1120 2463 C 1335 2392 1550 2230 1714 2015 L 1752 1965 L 1703 1953 C 1596 1928 1556 1941 1499 2020 C 1431 2114 1359 2200 1338 2211 C 1322 2219 1330 2205 1363 2159 C 1479 2001 1510 1956 1507 1946 C 1503 1934 1356 1917 1325 1925 C 1293 1933 1154 2132 1084 2272 C 1054 2332 1000 2470 1000 2488 C 1000 2494 1068 2480 1120 2463 z M 7177 2423 C 7235 2328 7315 2127 7303 2107 C 7298 2099 7064 2107 7048 2116 C 7045 2119 7050 2151 7061 2188 C 7072 2225 7092 2303 7107 2363 C 7122 2422 7137 2470 7141 2470 C 7145 2470 7161 2449 7177 2423 z M 8889 2214 C 8904 2200 8682 1988 8613 1952 C 8576 1932 8455 1943 8350 1977 C 8325 1985 8456 2100 8537 2143 C 8577 2164 8633 2188 8662 2197 C 8749 2222 8869 2232 8889 2214 z M 884 2143 C 993 2116 1131 2034 1208 1951 C 1241 1915 1248 1900 1231 1900 C 1225 1900 1159 1891 1083 1879 L 945 1859 L 901 1907 C 823 1993 709 2153 721 2160 C 735 2170 810 2162 884 2143 z M 2114 1833 C 2173 1728 2268 1597 2351 1505 L 2423 1426 L 2394 1418 C 2343 1403 1903 1397 1750 1409 C 1452 1432 1270 1455 910 1515 C 678 1554 469 1607 455 1630 C 439 1655 575 1713 735 1750 C 785 1761 843 1775 865 1780 C 904 1790 1000 1807 1130 1829 C 1371 1869 1832 1910 2009 1906 L 2072 1905 L 2114 1833 z" stroke-linecap="round" />
</g>
		<g transform="matrix(0.13 0 0 -0.13 66.23 -470.37)"  >
<path style="stroke: none; stroke-width: 1; stroke-dasharray: none; stroke-linecap: butt; stroke-dashoffset: 0; stroke-linejoin: miter; stroke-miterlimit: 4; fill: rgb(0,0,0); fill-rule: nonzero; opacity: 1;" vector-effect="non-scaling-stroke"  transform=" translate(-5317.07, -8483.5)" d="M 5700 8679 C 5648 8658 5581 8628 5552 8613 C 5507 8589 5498 8587 5490 8600 C 5485 8608 5480 8623 5480 8633 C 5480 8666 5445 8650 5387 8589 C 5345 8545 5315 8499 5279 8424 C 5251 8367 5226 8320 5221 8320 C 5217 8320 5198 8336 5179 8356 C 5076 8464 4911 8570 4846 8570 C 4821 8570 4835 8557 4946 8472 C 5017 8418 5111 8346 5156 8312 C 5200 8278 5241 8250 5247 8250 C 5253 8250 5280 8297 5308 8355 C 5363 8468 5435 8574 5451 8565 C 5456 8561 5460 8555 5460 8550 C 5460 8545 5464 8530 5470 8515 L 5480 8489 L 5532 8530 C 5605 8588 5657 8613 5715 8616 C 5772 8619 5804 8648 5798 8692 L 5795 8717 L 5700 8679 z" stroke-linecap="round" />
</g>
		<g transform="matrix(0.13 0 0 -0.13 -42.26 -485.57)"  >
<path style="stroke: none; stroke-width: 1; stroke-dasharray: none; stroke-linecap: butt; stroke-dashoffset: 0; stroke-linejoin: miter; stroke-miterlimit: 4; fill: rgb(0,0,0); fill-rule: nonzero; opacity: 1;" vector-effect="non-scaling-stroke"  transform=" translate(-4503.43, -8597.53)" d="M 4225 8660 C 4212 8640 4232 8633 4322 8626 C 4413 8619 4671 8562 4739 8534 C 4784 8515 4797 8528 4775 8569 C 4755 8609 4701 8644 4683 8629 C 4674 8621 4652 8623 4608 8634 C 4573 8642 4518 8654 4486 8659 C 4410 8673 4233 8673 4225 8660 z" stroke-linecap="round" />
</g>
		<g transform="matrix(0.13 0 0 -0.13 -243.98 -421.96)"  >
<path style="stroke: none; stroke-width: 1; stroke-dasharray: none; stroke-linecap: butt; stroke-dashoffset: 0; stroke-linejoin: miter; stroke-miterlimit: 4; fill: rgb(0,0,0); fill-rule: nonzero; opacity: 1;" vector-effect="non-scaling-stroke"  transform=" translate(-2990.52, -8120.42)" d="M 2874 8265 C 2840 8250 2764 8183 2772 8175 C 2775 8172 2799 8180 2826 8192 C 2891 8221 2971 8221 3027 8192 C 3065 8172 3100 8137 3100 8118 C 3100 8114 3068 8086 3029 8055 C 2956 7996 2944 7967 2990 7962 C 3005 7960 3036 7973 3069 7994 C 3120 8027 3124 8028 3151 8015 C 3166 8007 3182 7996 3185 7990 C 3188 7985 3196 7980 3202 7980 C 3220 7980 3204 8074 3176 8128 C 3141 8197 3106 8235 3057 8259 C 3007 8283 2922 8286 2874 8265 z" stroke-linecap="round" />
</g>
		<g transform="matrix(0.13 0 0 -0.13 189.99 -405.31)"  >
<path style="stroke: none; stroke-width: 1; stroke-dasharray: none; stroke-linecap: butt; stroke-dashoffset: 0; stroke-linejoin: miter; stroke-miterlimit: 4; fill: rgb(0,0,0); fill-rule: nonzero; opacity: 1;" vector-effect="non-scaling-stroke"  transform=" translate(-6245.31, -7995.59)" d="M 6124 8098 C 6098 8086 6075 8047 6083 8028 C 6085 8020 6114 8006 6146 7996 C 6212 7976 6335 7916 6363 7892 C 6381 7876 6383 7877 6396 7895 C 6415 7921 6414 7944 6390 7990 C 6344 8080 6204 8137 6124 8098 z" stroke-linecap="round" />
</g>
		<g transform="matrix(0.13 0 0 -0.13 -98.31 -403.15)"  >
<path style="stroke: none; stroke-width: 1; stroke-dasharray: none; stroke-linecap: butt; stroke-dashoffset: 0; stroke-linejoin: miter; stroke-miterlimit: 4; fill: rgb(0,0,0); fill-rule: nonzero; opacity: 1;" vector-effect="non-scaling-stroke"  transform=" translate(-4083.05, -7979.37)" d="M 4045 8077 C 3985 8048 3925 7985 3912 7936 C 3901 7898 3906 7860 3922 7860 C 3927 7860 3979 7886 4038 7919 C 4097 7951 4171 7986 4203 7996 C 4234 8006 4260 8019 4260 8025 C 4260 8031 4247 8049 4230 8065 C 4188 8105 4114 8110 4045 8077 z" stroke-linecap="round" />
</g>
		<g transform="matrix(0.13 0 0 -0.13 85.81 -233.98)"  >
<path style="stroke: none; stroke-width: 1; stroke-dasharray: none; stroke-linecap: butt; stroke-dashoffset: 0; stroke-linejoin: miter; stroke-miterlimit: 4; fill: rgb(0,0,0); fill-rule: nonzero; opacity: 1;" vector-effect="non-scaling-stroke"  transform=" translate(-5463.92, -6710.61)" d="M 6152 7564 C 6061 7519 6006 7424 5994 7293 C 5990 7253 5993 7200 6000 7165 C 6026 7039 6026 7048 5993 7065 C 5976 7073 5948 7083 5929 7086 C 5898 7092 5905 7083 6021 6969 C 6149 6844 6210 6760 6210 6710 C 6210 6695 6215 6679 6221 6673 C 6236 6658 6244 6535 6233 6485 L 6224 6445 L 6176 6448 C 6134 6450 6129 6448 6140 6435 C 6147 6427 6160 6420 6170 6420 C 6215 6420 6196 6377 6118 6303 C 6025 6216 5927 6180 5780 6180 C 5653 6180 5453 6242 5436 6286 C 5433 6294 5430 6360 5430 6432 C 5430 6555 5431 6562 5451 6567 C 5462 6570 5506 6590 5548 6610 C 5645 6657 5714 6724 5753 6808 C 5779 6865 5782 6879 5777 6935 C 5770 7004 5751 7044 5705 7082 C 5651 7126 5535 7153 5400 7152 C 5231 7152 5070 7105 5022 7043 C 4998 7011 4995 6998 4995 6930 C 4995 6859 4998 6849 5031 6794 C 5089 6700 5223 6603 5322 6585 C 5343 6581 5364 6573 5369 6566 C 5374 6560 5382 6494 5386 6419 L 5393 6283 L 5342 6252 C 5247 6194 5146 6160 5007 6140 C 4874 6120 4706 6153 4589 6222 C 4537 6252 4450 6331 4450 6348 C 4450 6354 4469 6368 4493 6379 L 4535 6400 L 4492 6394 L 4450 6388 L 4428 6437 C 4403 6493 4394 6574 4409 6612 C 4418 6637 4424 6639 4481 6642 C 4523 6644 4545 6649 4548 6659 C 4552 6670 4541 6672 4490 6666 L 4428 6659 L 4435 6687 C 4455 6768 4579 6914 4685 6981 C 4754 7025 4764 7043 4712 7034 C 4602 7015 4459 6888 4394 6751 C 4356 6673 4329 6641 4301 6639 C 4292 6638 4296 6635 4310 6631 C 4332 6625 4334 6620 4331 6572 C 4330 6544 4337 6485 4346 6443 C 4356 6400 4363 6363 4363 6360 C 4362 6357 4358 6347 4355 6338 C 4351 6327 4352 6320 4360 6320 C 4366 6320 4404 6287 4443 6247 C 4560 6128 4677 6083 4893 6073 L 5021 6067 L 5054 6015 C 5159 5852 5372 5786 5537 5866 C 5603 5898 5654 5956 5689 6040 L 5717 6105 L 5811 6111 C 5907 6117 5984 6137 6055 6172 C 6101 6196 6186 6263 6215 6300 C 6226 6314 6246 6337 6260 6351 C 6292 6383 6310 6471 6310 6589 C 6310 6664 6312 6671 6333 6680 C 6354 6688 6354 6689 6327 6689 C 6304 6690 6296 6699 6269 6755 C 6252 6791 6221 6843 6199 6870 L 6160 6920 L 6217 6914 C 6283 6908 6342 6920 6505 6976 C 6566 6997 6622 7016 6630 7018 C 6638 7021 6616 7028 6580 7033 C 6544 7038 6514 7043 6512 7045 C 6510 7047 6516 7065 6524 7085 C 6544 7132 6545 7268 6526 7331 C 6489 7453 6413 7543 6323 7574 C 6257 7597 6212 7594 6152 7564 z M 6286 7498 C 6314 7485 6340 7438 6340 7402 C 6340 7362 6298 7312 6256 7305 C 6180 7290 6101 7356 6114 7424 C 6128 7499 6211 7535 6286 7498 z M 5555 6149 C 5642 6118 5650 6113 5650 6089 C 5650 6054 5604 5987 5554 5950 C 5426 5856 5200 5896 5124 6026 C 5096 6073 5098 6085 5132 6093 C 5145 6096 5200 6114 5255 6134 C 5311 6154 5356 6166 5358 6160 C 5364 6143 5380 6149 5380 6168 C 5380 6178 5382 6189 5386 6192 C 5394 6200 5447 6186 5555 6149 z" stroke-linecap="round" />
</g>
		<g transform="matrix(0.13 0 0 -0.13 -91.76 -301.55)"  >
<path style="stroke: none; stroke-width: 1; stroke-dasharray: none; stroke-linecap: butt; stroke-dashoffset: 0; stroke-linejoin: miter; stroke-miterlimit: 4; fill: rgb(0,0,0); fill-rule: nonzero; opacity: 1;" vector-effect="non-scaling-stroke"  transform=" translate(-4132.15, -7217.41)" d="M 4070 7544 C 3954 7494 3884 7375 3874 7210 C 3869 7142 3872 7113 3888 7062 C 3910 6992 3914 6997 3835 6977 C 3767 6960 3767 6944 3837 6935 C 3869 6932 3942 6917 4000 6902 C 4137 6868 4264 6866 4331 6897 C 4463 6957 4519 7167 4451 7346 C 4422 7425 4352 7506 4286 7536 C 4226 7564 4125 7568 4070 7544 z M 4178 7476 C 4218 7455 4240 7427 4246 7388 C 4251 7359 4247 7347 4221 7317 C 4180 7271 4143 7263 4093 7288 C 4024 7324 3998 7406 4043 7447 C 4092 7492 4131 7500 4178 7476 z" stroke-linecap="round" />
</g>
		<g transform="matrix(0.13 0 0 -0.13 173.58 -232.13)"  >
<path style="stroke: none; stroke-width: 1; stroke-dasharray: none; stroke-linecap: butt; stroke-dashoffset: 0; stroke-linejoin: miter; stroke-miterlimit: 4; fill: rgb(0,0,0); fill-rule: nonzero; opacity: 1;" vector-effect="non-scaling-stroke"  transform=" translate(-6122.23, -6696.7)" d="M 6070 6701 C 6070 6696 6077 6689 6086 6686 C 6107 6678 6181 6690 6174 6701 C 6167 6713 6070 6713 6070 6701 z" stroke-linecap="round" />
</g>
		<g transform="matrix(0.13 0 0 -0.13 215.95 -227.22)"  >
<path style="stroke: none; stroke-width: 1; stroke-dasharray: none; stroke-linecap: butt; stroke-dashoffset: 0; stroke-linejoin: miter; stroke-miterlimit: 4; fill: rgb(0,0,0); fill-rule: nonzero; opacity: 1;" vector-effect="non-scaling-stroke"  transform=" translate(-6440, -6659.88)" d="M 6380 6672 C 6380 6667 6397 6660 6418 6657 C 6438 6654 6465 6648 6478 6644 C 6490 6641 6500 6642 6500 6648 C 6500 6653 6485 6660 6468 6663 C 6450 6666 6423 6672 6408 6675 C 6391 6679 6380 6678 6380 6672 z" stroke-linecap="round" />
</g>
		<g transform="matrix(0.13 0 0 -0.13 -19.14 -226.68)"  >
<path style="stroke: none; stroke-width: 1; stroke-dasharray: none; stroke-linecap: butt; stroke-dashoffset: 0; stroke-linejoin: miter; stroke-miterlimit: 4; fill: rgb(0,0,0); fill-rule: nonzero; opacity: 1;" vector-effect="non-scaling-stroke"  transform=" translate(-4676.8, -6655.87)" d="M 4655 6660 C 4647 6648 4675 6636 4690 6645 C 4695 6648 4700 6655 4700 6661 C 4700 6673 4663 6673 4655 6660 z" stroke-linecap="round" />
</g>
		<g transform="matrix(0.13 0 0 -0.13 227.98 -223.87)"  >
<path style="stroke: none; stroke-width: 1; stroke-dasharray: none; stroke-linecap: butt; stroke-dashoffset: 0; stroke-linejoin: miter; stroke-miterlimit: 4; fill: rgb(0,0,0); fill-rule: nonzero; opacity: 1;" vector-effect="non-scaling-stroke"  transform=" translate(-6530.18, -6634.75)" d="M 6518 6633 C 6524 6631 6536 6631 6543 6633 C 6549 6636 6544 6638 6530 6638 C 6516 6638 6511 6636 6518 6633 z" stroke-linecap="round" />
</g>
		<g transform="matrix(0.13 0 0 -0.13 -77.14 -221.9)"  >
<path style="stroke: none; stroke-width: 1; stroke-dasharray: none; stroke-linecap: butt; stroke-dashoffset: 0; stroke-linejoin: miter; stroke-miterlimit: 4; fill: rgb(0,0,0); fill-rule: nonzero; opacity: 1;" vector-effect="non-scaling-stroke"  transform=" translate(-4241.8, -6620)" d="M 4235 6620 C 4232 6615 4234 6610 4239 6610 C 4245 6610 4250 6615 4250 6620 C 4250 6626 4248 6630 4246 6630 C 4243 6630 4238 6626 4235 6620 z" stroke-linecap="round" />
</g>
		<g transform="matrix(0.13 0 0 -0.13 -85.36 -219.87)"  >
<path style="stroke: none; stroke-width: 1; stroke-dasharray: none; stroke-linecap: butt; stroke-dashoffset: 0; stroke-linejoin: miter; stroke-miterlimit: 4; fill: rgb(0,0,0); fill-rule: nonzero; opacity: 1;" vector-effect="non-scaling-stroke"  transform=" translate(-4180.18, -6604.75)" d="M 4168 6603 C 4174 6601 4186 6601 4193 6603 C 4199 6606 4194 6608 4180 6608 C 4166 6608 4161 6606 4168 6603 z" stroke-linecap="round" />
</g>
		<g transform="matrix(0.13 0 0 -0.13 -99.71 -215.9)"  >
<path style="stroke: none; stroke-width: 1; stroke-dasharray: none; stroke-linecap: butt; stroke-dashoffset: 0; stroke-linejoin: miter; stroke-miterlimit: 4; fill: rgb(0,0,0); fill-rule: nonzero; opacity: 1;" vector-effect="non-scaling-stroke"  transform=" translate(-4072.5, -6575)" d="M 4105 6590 C 4102 6585 4091 6580 4082 6580 C 4073 6579 4052 6573 4035 6565 L 4005 6550 L 4045 6556 C 4067 6559 4089 6566 4095 6571 C 4100 6576 4112 6580 4122 6580 C 4132 6580 4140 6585 4140 6590 C 4140 6596 4134 6600 4126 6600 C 4118 6600 4108 6596 4105 6590 z" stroke-linecap="round" />
</g>
		<g transform="matrix(0.13 0 0 -0.13 -110.47 -211.23)"  >
<path style="stroke: none; stroke-width: 1; stroke-dasharray: none; stroke-linecap: butt; stroke-dashoffset: 0; stroke-linejoin: miter; stroke-miterlimit: 4; fill: rgb(0,0,0); fill-rule: nonzero; opacity: 1;" vector-effect="non-scaling-stroke"  transform=" translate(-3991.8, -6540)" d="M 3985 6540 C 3988 6535 3993 6530 3996 6530 C 3998 6530 4000 6535 4000 6540 C 4000 6546 3995 6550 3989 6550 C 3984 6550 3982 6546 3985 6540 z" stroke-linecap="round" />
</g>
		<g transform="matrix(0.13 0 0 -0.13 159.85 -209.1)"  >
<path style="stroke: none; stroke-width: 1; stroke-dasharray: none; stroke-linecap: butt; stroke-dashoffset: 0; stroke-linejoin: miter; stroke-miterlimit: 4; fill: rgb(0,0,0); fill-rule: nonzero; opacity: 1;" vector-effect="non-scaling-stroke"  transform=" translate(-6019.23, -6524.01)" d="M 6007 6534 C 5994 6521 6000 6510 6021 6510 C 6032 6510 6040 6515 6038 6522 C 6033 6536 6016 6543 6007 6534 z" stroke-linecap="round" />
</g>
		<g transform="matrix(0.13 0 0 -0.13 -11.38 -200.57)"  >
<path style="stroke: none; stroke-width: 1; stroke-dasharray: none; stroke-linecap: butt; stroke-dashoffset: 0; stroke-linejoin: miter; stroke-miterlimit: 4; fill: rgb(0,0,0); fill-rule: nonzero; opacity: 1;" vector-effect="non-scaling-stroke"  transform=" translate(-4735, -6460)" d="M 4705 6460 C 4701 6454 4713 6450 4735 6450 C 4757 6450 4769 6454 4765 6460 C 4762 6466 4748 6470 4735 6470 C 4722 6470 4708 6466 4705 6460 z" stroke-linecap="round" />
</g>
		<g transform="matrix(0.13 0 0 -0.13 203.71 -185.9)"  >
<path style="stroke: none; stroke-width: 1; stroke-dasharray: none; stroke-linecap: butt; stroke-dashoffset: 0; stroke-linejoin: miter; stroke-miterlimit: 4; fill: rgb(0,0,0); fill-rule: nonzero; opacity: 1;" vector-effect="non-scaling-stroke"  transform=" translate(-6348.2, -6350)" d="M 6340 6350 C 6340 6345 6345 6340 6351 6340 C 6356 6340 6358 6345 6355 6350 C 6352 6356 6347 6360 6344 6360 C 6342 6360 6340 6356 6340 6350 z" stroke-linecap="round" />
</g>
		<g transform="matrix(0.13 0 0 -0.13 208.97 -182.44)"  >
<path style="stroke: none; stroke-width: 1; stroke-dasharray: none; stroke-linecap: butt; stroke-dashoffset: 0; stroke-linejoin: miter; stroke-miterlimit: 4; fill: rgb(0,0,0); fill-rule: nonzero; opacity: 1;" vector-effect="non-scaling-stroke"  transform=" translate(-6387.6, -6324.04)" d="M 6382 6324 C 6392 6314 6402 6308 6404 6311 C 6407 6314 6399 6322 6387 6329 C 6366 6342 6366 6341 6382 6324 z" stroke-linecap="round" />
</g>
		<g transform="matrix(0.13 0 0 -0.13 73.48 -55.81)"  >
<path style="stroke: none; stroke-width: 1; stroke-dasharray: none; stroke-linecap: butt; stroke-dashoffset: 0; stroke-linejoin: miter; stroke-miterlimit: 4; fill: rgb(0,0,0); fill-rule: nonzero; opacity: 1;" vector-effect="non-scaling-stroke"  transform=" translate(-5371.43, -5374.34)" d="M 5585 5410 C 5541 5394 5460 5376 5406 5369 C 5308 5356 5287 5358 5090 5386 C 5058 5391 5057 5390 5073 5377 C 5083 5369 5129 5350 5175 5335 C 5252 5310 5268 5308 5372 5313 C 5447 5316 5500 5324 5530 5336 C 5584 5357 5680 5418 5680 5431 C 5680 5442 5681 5443 5585 5410 z" stroke-linecap="round" />
</g>
		<g transform="matrix(0.13 0 0 -0.13 -154.79 -25.04)"  >
<path style="stroke: none; stroke-width: 1; stroke-dasharray: none; stroke-linecap: butt; stroke-dashoffset: 0; stroke-linejoin: miter; stroke-miterlimit: 4; fill: rgb(0,0,0); fill-rule: nonzero; opacity: 1;" vector-effect="non-scaling-stroke"  transform=" translate(-3659.4, -5143.53)" d="M 2990 5335 C 2990 5315 3068 5258 3157 5212 C 3392 5091 3704 5007 4085 4960 C 4217 4944 4307 4943 4321 4957 C 4328 4964 4331 4972 4327 4976 C 4321 4983 4235 4999 4070 5025 C 3633 5093 3385 5163 3154 5282 C 3068 5326 2990 5351 2990 5335 z" stroke-linecap="round" />
</g>
		<g transform="matrix(0.13 0 0 -0.13 -81.53 109.61)"  >
<path style="stroke: none; stroke-width: 1; stroke-dasharray: none; stroke-linecap: butt; stroke-dashoffset: 0; stroke-linejoin: miter; stroke-miterlimit: 4; fill: rgb(0,0,0); fill-rule: nonzero; opacity: 1;" vector-effect="non-scaling-stroke"  transform=" translate(-4208.88, -4133.65)" d="M 4222 4813 C 4216 4802 4214 4790 4217 4786 C 4220 4783 4258 4780 4300 4780 C 4452 4780 4708 4737 4870 4683 C 5067 4619 5260 4484 5370 4334 C 5464 4208 5540 3996 5539 3865 C 5539 3797 5542 3795 5470 3905 C 5435 3960 5389 4000 5361 4000 C 5342 4000 5349 3964 5375 3929 C 5414 3875 5459 3780 5466 3735 C 5474 3680 5451 3626 5411 3606 C 5378 3588 5350 3594 5350 3619 C 5350 3628 5331 3668 5309 3708 C 5261 3794 5167 3892 5136 3888 C 5103 3883 5112 3861 5184 3766 C 5249 3680 5290 3612 5290 3590 C 5290 3574 5180 3578 5119 3596 C 5057 3615 4974 3655 4897 3704 C 4825 3750 4679 3822 4672 3816 C 4669 3812 4676 3800 4688 3787 C 4714 3760 4716 3740 4695 3740 C 4687 3740 4672 3736 4662 3731 C 4602 3698 4256 3582 4129 3551 C 4023 3526 3826 3500 3745 3500 C 3641 3500 3442 3536 3365 3569 C 3168 3654 3077 3714 2942 3848 C 2885 3904 2832 3950 2824 3950 C 2761 3950 2922 3749 3065 3648 C 3293 3489 3561 3419 3865 3441 C 4090 3457 4270 3504 4692 3660 L 4778 3692 L 4838 3651 C 4987 3550 5121 3506 5280 3505 C 5419 3505 5456 3516 5509 3576 C 5603 3683 5629 3815 5591 4002 C 5554 4187 5467 4345 5326 4485 C 5108 4702 4812 4811 4399 4827 C 4239 4833 4232 4832 4222 4813 z" stroke-linecap="round" />
</g>
		<g transform="matrix(0.13 0 0 -0.13 428.63 240.05)"  >
<path style="stroke: none; stroke-width: 1; stroke-dasharray: none; stroke-linecap: butt; stroke-dashoffset: 0; stroke-linejoin: miter; stroke-miterlimit: 4; fill: rgb(0,0,0); fill-rule: nonzero; opacity: 1;" vector-effect="non-scaling-stroke"  transform=" translate(-8035.06, -3155.38)" d="M 8283 3541 C 8101 3377 7945 3177 7796 2917 C 7714 2774 7688 2720 7694 2704 C 7706 2672 7731 2696 7790 2798 C 7868 2931 8024 3170 8098 3270 C 8177 3375 8322 3554 8336 3562 C 8349 3570 8383 3620 8376 3620 C 8373 3620 8331 3584 8283 3541 z" stroke-linecap="round" />
</g>
		<g transform="matrix(0.13 0 0 -0.13 -361.36 -219.87)"  >
<path style="stroke: none; stroke-width: 1; stroke-dasharray: none; stroke-linecap: butt; stroke-dashoffset: 0; stroke-linejoin: miter; stroke-miterlimit: 4; fill: rgb(0,0,0); fill-rule: nonzero; opacity: 1;" vector-effect="non-scaling-stroke"  transform=" translate(-2110.18, -6604.75)" d="M 2093 6603 C 2102 6601 2118 6601 2128 6603 C 2137 6606 2129 6608 2110 6608 C 2091 6608 2083 6606 2093 6603 z" stroke-linecap="round" />
</g>
		<g transform="matrix(0.13 0 0 -0.13 -489.87 187.25)"  >
<path style="stroke: none; stroke-width: 1; stroke-dasharray: none; stroke-linecap: butt; stroke-dashoffset: 0; stroke-linejoin: miter; stroke-miterlimit: 4; fill: rgb(0,0,0); fill-rule: nonzero; opacity: 1;" vector-effect="non-scaling-stroke"  transform=" translate(-1146.32, -3551.38)" d="M 708 3949 C 668 3926 675 3814 731 3582 C 765 3442 814 3301 856 3221 C 887 3162 896 3155 920 3170 C 933 3178 930 3195 896 3287 C 860 3388 801 3570 779 3650 C 762 3710 741 3875 749 3883 C 766 3900 964 3803 1080 3721 C 1181 3649 1367 3458 1469 3320 C 1520 3251 1568 3182 1576 3167 C 1584 3152 1595 3142 1600 3145 C 1616 3155 1612 3218 1594 3253 C 1528 3381 1316 3628 1190 3724 C 1047 3834 895 3918 794 3945 C 726 3962 730 3962 708 3949 z" stroke-linecap="round" />
</g>
		<g transform="matrix(0.13 0 0 -0.13 -424.22 511.19)"  >
<path style="stroke: none; stroke-width: 1; stroke-dasharray: none; stroke-linecap: butt; stroke-dashoffset: 0; stroke-linejoin: miter; stroke-miterlimit: 4; fill: rgb(0,0,0); fill-rule: nonzero; opacity: 1;" vector-effect="non-scaling-stroke"  transform=" translate(-1638.67, -1121.81)" d="M 1471 1205 C 1390 1190 1350 1167 1336 1126 C 1323 1092 1342 1078 1435 1048 C 1516 1022 1681 1018 1810 1039 C 1907 1054 1945 1076 1945 1115 C 1945 1139 1937 1149 1902 1168 C 1816 1216 1622 1232 1471 1205 z M 1761 1176 C 1831 1161 1920 1125 1920 1112 C 1920 1098 1814 1069 1719 1058 C 1652 1050 1606 1050 1545 1058 C 1455 1070 1357 1106 1363 1124 C 1368 1138 1451 1169 1510 1180 C 1583 1192 1690 1191 1761 1176 z" stroke-linecap="round" />
</g>
		<g transform="matrix(0.13 0 0 -0.13 393.38 523.72)"  >
<path style="stroke: none; stroke-width: 1; stroke-dasharray: none; stroke-linecap: butt; stroke-dashoffset: 0; stroke-linejoin: miter; stroke-miterlimit: 4; fill: rgb(0,0,0); fill-rule: nonzero; opacity: 1;" vector-effect="non-scaling-stroke"  transform=" translate(-7770.73, -1027.84)" d="M 7670 1119 C 7576 1111 7516 1093 7484 1063 C 7448 1030 7457 1009 7520 978 C 7601 937 7711 924 7853 939 C 7987 952 8027 963 8058 997 C 8085 1027 8085 1035 8060 1060 C 8014 1106 7839 1133 7670 1119 z M 7881 1085 C 7981 1064 8035 1044 8035 1029 C 8035 1009 7904 968 7819 963 C 7706 955 7500 995 7500 1025 C 7500 1036 7609 1082 7665 1093 C 7710 1103 7813 1099 7881 1085 z" stroke-linecap="round" />
</g>
</g>
</g>
</svg>