<?xml version="1.0" standalone="no"?>
<!DOCTYPE svg PUBLIC "-//W3C//DTD SVG 20010904//EN"
 "http://www.w3.org/TR/2001/REC-SVG-20010904/DTD/svg10.dtd">
<svg version="1.0" xmlns="http://www.w3.org/2000/svg"
 width="972.000000pt" height="965.000000pt" viewBox="0 0 972.000000 965.000000"
 preserveAspectRatio="xMidYMid meet">

<g transform="translate(0.000000,965.000000) scale(0.100000,-0.100000)"
fill="#000000" stroke="none">
<path d="M4700 8969 c-398 -45 -793 -178 -1128 -380 l-112 -69 -48 34 c-126
90 -224 120 -376 114 -92 -4 -122 -9 -176 -31 -156 -65 -265 -188 -326 -367
-15 -43 -19 -83 -18 -190 0 -137 8 -179 52 -270 19 -39 110 -160 120 -160 4 0
19 -11 34 -24 l26 -25 -62 -124 c-57 -113 -106 -246 -142 -383 -7 -29 -25 -69
-40 -90 -31 -47 -107 -195 -135 -266 -41 -105 -79 -296 -79 -401 0 -91 40
-295 77 -395 43 -115 163 -333 209 -380 8 -7 14 -18 14 -23 0 -15 -157 -325
-250 -494 -90 -165 -184 -354 -225 -455 -26 -66 -31 -77 -58 -140 -8 -19 -36
-98 -61 -175 -118 -363 -178 -696 -192 -1073 -4 -95 -10 -170 -15 -165 -16 16
-88 211 -124 333 -157 537 -261 940 -314 1210 -47 247 -46 229 -14 235 145 27
220 58 311 126 104 79 208 233 247 369 23 80 31 196 15 215 -18 22 -69 18
-151 -11 -139 -50 -280 -151 -359 -259 -42 -56 -100 -166 -100 -189 0 -7 -6
-16 -13 -19 -15 -6 -39 182 -58 457 -24 346 35 796 135 1023 25 56 32 81 24
90 -21 26 -36 12 -76 -69 -100 -201 -129 -350 -141 -723 -11 -318 3 -552 53
-895 29 -197 106 -579 146 -720 5 -19 19 -73 31 -120 22 -94 34 -137 74 -285
15 -55 31 -118 37 -139 5 -22 24 -91 43 -155 19 -64 38 -134 44 -156 34 -143
40 -160 187 -474 28 -58 44 -107 44 -131 0 -113 72 -414 150 -628 28 -75 50
-140 50 -144 0 -5 -33 -8 -73 -8 -96 0 -101 5 -142 160 -21 77 -44 145 -62
180 -24 47 -14 -8 21 -113 38 -116 54 -207 37 -207 -7 0 -15 8 -18 18 -13 35
-113 161 -186 235 -122 123 -262 212 -423 270 -145 52 -234 56 -251 10 -11
-28 26 -152 77 -260 32 -67 44 -103 36 -103 -8 0 -38 11 -67 25 -129 59 -248
68 -309 25 -25 -18 -29 -26 -24 -48 16 -67 67 -143 163 -246 l56 -60 -30 -12
c-17 -7 -39 -13 -50 -14 -11 0 -72 -13 -135 -29 -118 -29 -180 -54 -238 -98
-29 -22 -33 -29 -30 -66 2 -33 9 -45 34 -62 62 -42 295 -102 519 -134 39 -6
147 -22 240 -36 497 -76 934 -94 1213 -49 101 16 104 16 125 -4 12 -11 60 -45
107 -75 265 -171 558 -264 905 -288 77 -5 169 -12 204 -15 47 -4 79 -1 120 12
31 10 70 17 87 15 45 -3 110 26 184 82 l65 49 80 -6 c587 -49 1039 -4 1413
141 l93 36 117 -35 c265 -81 435 -106 779 -115 234 -6 243 -5 293 16 28 12 81
31 118 42 96 30 157 66 189 112 26 37 28 48 28 131 0 82 -3 96 -29 144 -53 95
-199 211 -299 235 -15 4 -27 13 -27 20 0 16 66 177 77 188 20 20 742 -43 1088
-96 227 -34 639 -115 740 -145 17 -5 55 -17 85 -25 65 -19 75 -23 161 -64 36
-17 74 -40 84 -51 17 -19 17 -20 -26 -38 -144 -62 -347 -92 -724 -107 -82 -4
-154 -10 -158 -15 -5 -4 -6 -17 -2 -29 6 -20 12 -21 177 -21 323 0 740 71 795
135 25 29 30 82 11 107 -51 62 -228 138 -428 183 -99 22 -140 35 -140 43 0 4
31 30 68 57 132 98 232 207 232 253 0 10 -9 27 -21 38 -18 16 -37 19 -133 19
-96 -1 -122 -5 -191 -29 -44 -15 -86 -33 -93 -38 -32 -27 -21 11 31 111 59
111 84 198 72 250 -14 66 -119 67 -293 4 -23 -9 -45 -14 -48 -11 -3 3 21 30
52 59 161 152 210 205 315 340 260 332 425 726 446 1059 5 87 4 97 -17 122
-28 36 -74 37 -203 3 -183 -47 -352 -128 -522 -250 -39 -27 -96 -71 -129 -98
-32 -26 -60 -46 -62 -44 -2 2 9 37 25 78 183 477 291 999 291 1410 0 127 -23
393 -40 459 -5 19 -16 64 -25 100 -39 155 -89 252 -125 243 -11 -3 -20 -8 -20
-12 0 -4 13 -44 30 -88 130 -358 150 -775 59 -1268 -23 -125 -80 -368 -109
-465 -168 -556 -151 -519 -354 -798 -30 -41 -62 -89 -72 -108 -34 -63 -41 -45
-55 130 -10 141 -31 262 -52 305 -11 22 -19 26 -55 25 -48 -1 -68 -16 -141
-109 -71 -90 -117 -172 -146 -260 -23 -70 -24 -80 -10 -94 19 -19 23 -15 76
89 82 163 192 312 217 296 12 -7 25 -74 24 -126 0 -20 -13 -70 -27 -111 -190
-529 -251 -766 -302 -1169 l-9 -65 -56 110 c-31 61 -76 144 -101 186 l-45 76
6 112 c7 164 -13 308 -93 666 -25 113 -55 278 -55 307 0 19 6 29 23 34 85 26
184 130 237 248 45 100 55 158 54 316 -1 266 -78 495 -272 815 -94 154 -91
144 -51 177 99 85 210 189 252 238 145 168 236 360 278 583 11 62 25 135 30
162 11 57 3 176 -16 250 -28 106 -88 273 -120 332 -33 60 -42 73 -97 137 -54
64 -109 142 -129 182 -11 23 -35 104 -54 180 -40 159 -82 269 -168 436 l-59
117 25 43 c94 162 87 395 -19 570 -151 248 -446 319 -680 164 l-52 -35 -44 28
c-248 158 -592 273 -923 311 -105 12 -426 11 -535 -1z m556 -74 c367 -48 712
-180 983 -374 368 -265 619 -584 782 -994 43 -106 97 -312 86 -323 -4 -4 -19
-2 -33 5 -59 26 -43 3 105 -158 113 -124 154 -180 201 -273 52 -102 88 -204
111 -313 25 -119 25 -139 -1 -132 -19 5 -20 0 -19 -97 1 -211 -45 -359 -173
-553 -127 -194 -364 -406 -593 -532 -72 -40 -125 -79 -125 -92 0 -31 116 9
235 80 46 28 86 51 89 51 8 0 94 -131 154 -235 92 -161 165 -353 192 -509 15
-87 12 -254 -5 -337 -52 -245 -229 -383 -470 -366 -79 6 -181 30 -200 48 -5 6
6 24 30 49 29 30 35 40 22 40 -34 0 -116 -50 -226 -138 -125 -100 -183 -132
-248 -140 l-44 -5 7 29 c3 16 20 54 37 84 68 125 87 165 87 182 0 23 -7 23
-47 -1 -38 -24 -72 -79 -113 -188 -18 -46 -36 -86 -42 -89 -15 -10 -67 46 -78
84 -15 58 7 136 72 256 21 38 38 72 38 77 0 12 -61 -8 -82 -28 -24 -21 -59
-84 -74 -132 -6 -19 -16 -37 -22 -39 -29 -9 -4 310 28 353 4 6 15 30 24 55 44
112 192 292 328 396 67 52 180 120 261 157 51 23 68 43 51 60 -11 11 -178 -54
-259 -101 -178 -104 -308 -233 -404 -403 -78 -139 -113 -269 -114 -429 -2
-154 23 -228 110 -337 41 -50 75 -63 163 -63 121 0 259 62 368 164 l53 50 42
-12 c124 -36 226 -53 312 -50 l90 3 -1 -195 c-1 -252 -22 -421 -84 -660 -125
-483 -398 -931 -735 -1205 -106 -86 -227 -167 -325 -218 -126 -65 -408 -155
-553 -176 -34 -5 -93 -14 -132 -20 -165 -24 -380 -31 -595 -21 -118 6 -231 14
-250 18 l-35 8 -5 74 c-7 89 -40 167 -95 229 l-38 41 29 118 c27 107 29 131
28 292 0 142 -5 193 -22 270 -73 319 -207 567 -417 773 -130 128 -249 209
-464 316 -141 70 -301 121 -301 94 0 -8 141 -93 155 -93 14 0 259 -125 307
-157 296 -199 514 -481 613 -794 54 -170 60 -213 60 -404 -1 -154 -4 -192 -23
-265 -12 -46 -27 -89 -32 -94 -6 -6 -30 0 -67 17 -197 91 -435 81 -637 -26
-74 -40 -97 -60 -82 -74 4 -4 30 3 59 16 115 50 283 91 374 91 53 0 183 -23
218 -39 100 -45 125 -60 162 -97 78 -78 112 -182 89 -273 -7 -25 -16 -44 -22
-41 -5 3 -16 35 -26 72 -19 74 -35 108 -72 153 -22 27 -26 28 -40 15 -14 -14
-13 -22 13 -85 57 -135 49 -230 -21 -259 -43 -18 -51 -12 -43 33 16 94 -70
296 -118 278 -23 -9 -21 -39 3 -83 11 -19 27 -63 35 -96 12 -53 12 -65 -2
-100 -24 -59 -92 -85 -146 -56 -34 18 -44 36 -77 138 -28 86 -67 150 -92 150
-20 0 -5 -78 32 -164 22 -51 40 -99 40 -106 0 -10 -26 -12 -118 -7 -65 3 -138
10 -163 16 -24 6 -87 20 -139 31 -168 38 -381 129 -519 222 -79 53 -184 139
-224 182 -337 364 -502 769 -552 1351 -19 226 -19 340 1 557 26 291 90 597
178 848 15 41 36 102 47 135 12 33 29 78 39 100 10 22 30 69 45 105 29 70 131
273 190 380 71 128 124 227 184 348 34 67 66 122 72 122 5 0 41 -30 79 -67 63
-61 147 -119 158 -108 7 7 -61 99 -119 160 -172 182 -276 384 -314 608 -5 32
-9 36 -21 27 -8 -7 -14 -21 -14 -31 0 -22 -15 -25 -23 -4 -4 8 -11 63 -18 122
-39 359 77 704 314 936 65 63 64 72 -5 28 -25 -16 -48 -27 -51 -25 -6 6 16
107 38 169 27 80 90 205 139 279 25 37 46 69 46 71 0 1 -22 17 -50 35 -271
174 -310 559 -80 791 104 104 204 149 334 149 129 0 233 -45 364 -157 l50 -43
26 35 c36 47 139 113 305 195 287 143 565 228 866 265 142 18 449 18 581 0z
m1375 -234 c114 -36 206 -119 264 -239 35 -73 58 -195 50 -267 -7 -60 -39
-172 -55 -189 -5 -5 -25 17 -46 50 -34 54 -78 110 -201 257 -24 28 -43 56 -43
63 0 16 24 24 75 24 37 0 47 -5 79 -40 20 -22 36 -47 36 -55 0 -8 5 -15 10
-15 6 0 10 -14 10 -32 0 -23 3 -29 11 -21 16 16 -17 105 -57 151 -20 23 -53
48 -78 57 -44 17 -67 15 -151 -9 -15 -5 -42 12 -106 66 -47 40 -100 85 -119
99 -39 30 -36 41 23 71 95 49 200 59 298 29z m-4771 -3198 c-1 -27 -44 -176
-65 -220 -53 -117 -141 -222 -242 -289 -62 -41 -171 -84 -214 -84 -31 0 -31 0
-24 42 37 218 225 440 452 534 59 24 93 30 93 17z m7185 -1440 c-29 -364 -212
-761 -509 -1102 -90 -102 -255 -259 -439 -415 -193 -163 -315 -283 -387 -379
-40 -54 -46 -58 -74 -53 -17 4 -34 10 -38 14 -16 16 53 238 132 433 31 74 52
141 47 146 -20 19 -145 -305 -206 -534 -11 -41 -12 -41 -62 -45 -28 -1 -56 0
-62 4 -7 4 -8 47 -4 131 10 201 44 397 114 652 35 129 153 481 168 502 34 46
31 -239 -4 -379 -10 -42 -22 -81 -26 -87 -3 -6 -3 -11 2 -11 4 0 34 51 66 113
230 449 448 713 733 888 188 115 418 207 522 208 l34 1 -7 -87z m-1984 -903
c41 -184 28 -529 -28 -755 -33 -134 -125 -400 -163 -470 -16 -28 -21 -30 -99
-37 -45 -4 -106 -12 -135 -18 -64 -13 -159 -68 -164 -94 -3 -15 0 -17 14 -11
104 45 162 58 269 58 61 0 130 -5 155 -12 120 -34 222 -107 274 -195 23 -39
45 -116 33 -116 -3 0 -18 27 -33 60 -27 61 -53 86 -79 76 -11 -4 -6 -27 22
-107 40 -117 40 -160 -2 -196 -41 -36 -51 -30 -59 38 -8 77 -37 144 -84 192
-40 41 -53 45 -72 22 -11 -13 -7 -24 22 -68 53 -80 70 -148 52 -213 -8 -30
-66 -54 -129 -54 l-55 0 0 38 c-1 47 -23 150 -39 182 -19 35 -62 80 -78 80
-22 0 -15 -46 22 -141 19 -50 35 -107 35 -127 l0 -35 -152 6 c-144 6 -304 24
-428 46 -112 21 -270 65 -270 75 1 6 41 37 90 69 293 191 559 497 740 852 152
298 243 591 280 903 16 138 21 134 61 -48z m1519 -570 c0 -6 -9 -39 -21 -73
-55 -165 -262 -487 -313 -487 -44 0 -136 23 -136 34 0 6 41 52 91 101 86 86
137 150 126 161 -2 3 -24 -19 -48 -48 -52 -61 -141 -150 -186 -185 l-33 -25
-147 17 c-82 9 -151 20 -155 23 -13 13 154 182 256 259 115 87 279 170 406
207 89 26 160 33 160 16z m-7460 -87 c215 -71 430 -233 594 -448 l38 -50 -49
-12 c-107 -25 -147 -12 -204 67 -68 94 -140 180 -161 191 -16 8 -8 -6 25 -52
116 -158 147 -203 144 -213 -4 -12 -151 -29 -182 -21 -32 8 -171 207 -241 347
-30 60 -84 198 -84 216 0 6 68 -8 120 -25z m6057 -40 c58 -95 138 -296 126
-316 -5 -8 -239 0 -255 9 -3 3 2 35 13 72 11 37 31 115 46 175 15 59 30 107
34 107 4 0 20 -21 36 -47z m1712 -209 c15 -14 -207 -226 -276 -262 -37 -20
-158 -9 -263 25 -25 8 106 123 187 166 40 21 96 45 125 54 87 25 207 35 227
17z m-8005 -71 c109 -27 247 -109 324 -192 33 -36 40 -51 23 -51 -6 0 -72 -9
-148 -21 l-138 -20 -44 48 c-78 86 -192 246 -180 253 14 10 89 2 163 -17z
m1230 -310 c59 -105 154 -236 237 -328 l72 -79 -29 -8 c-51 -15 -491 -21 -644
-9 -298 23 -480 46 -840 106 -232 39 -441 92 -455 115 -16 25 120 83 280 120
50 11 108 25 130 30 39 10 135 27 265 49 241 40 702 81 879 77 l63 -1 42 -72z"/>
<path d="M5700 8679 c-52 -21 -119 -51 -148 -66 -45 -24 -54 -26 -62 -13 -5 8
-10 23 -10 33 0 33 -35 17 -93 -44 -42 -44 -72 -90 -108 -165 -28 -57 -53
-104 -58 -104 -4 0 -23 16 -42 36 -103 108 -268 214 -333 214 -25 0 -11 -13
100 -98 71 -54 165 -126 210 -160 44 -34 85 -62 91 -62 6 0 33 47 61 105 55
113 127 219 143 210 5 -4 9 -10 9 -15 0 -5 4 -20 10 -35 l10 -26 52 41 c73 58
125 83 183 86 57 3 89 32 83 76 l-3 25 -95 -38z"/>
<path d="M4225 8660 c-13 -20 7 -27 97 -34 91 -7 349 -64 417 -92 45 -19 58
-6 36 35 -20 40 -74 75 -92 60 -9 -8 -31 -6 -75 5 -35 8 -90 20 -122 25 -76
14 -253 14 -261 1z"/>
<path d="M2874 8265 c-34 -15 -110 -82 -102 -90 3 -3 27 5 54 17 65 29 145 29
201 0 38 -20 73 -55 73 -74 0 -4 -32 -32 -71 -63 -73 -59 -85 -88 -39 -93 15
-2 46 11 79 32 51 33 55 34 82 21 15 -8 31 -19 34 -25 3 -5 11 -10 17 -10 18
0 2 94 -26 148 -35 69 -70 107 -119 131 -50 24 -135 27 -183 6z"/>
<path d="M6124 8098 c-26 -12 -49 -51 -41 -70 2 -8 31 -22 63 -32 66 -20 189
-80 217 -104 18 -16 20 -15 33 3 19 26 18 49 -6 95 -46 90 -186 147 -266 108z"/>
<path d="M4045 8077 c-60 -29 -120 -92 -133 -141 -11 -38 -6 -76 10 -76 5 0
57 26 116 59 59 32 133 67 165 77 31 10 57 23 57 29 0 6 -13 24 -30 40 -42 40
-116 45 -185 12z"/>
<path d="M6152 7564 c-91 -45 -146 -140 -158 -271 -4 -40 -1 -93 6 -128 26
-126 26 -117 -7 -100 -17 8 -45 18 -64 21 -31 6 -24 -3 92 -117 128 -125 189
-209 189 -259 0 -15 5 -31 11 -37 15 -15 23 -138 12 -188 l-9 -40 -48 3 c-42
2 -47 0 -36 -13 7 -8 20 -15 30 -15 45 0 26 -43 -52 -117 -93 -87 -191 -123
-338 -123 -127 0 -327 62 -344 106 -3 8 -6 74 -6 146 0 123 1 130 21 135 11 3
55 23 97 43 97 47 166 114 205 198 26 57 29 71 24 127 -7 69 -26 109 -72 147
-54 44 -170 71 -305 70 -169 0 -330 -47 -378 -109 -24 -32 -27 -45 -27 -113 0
-71 3 -81 36 -136 58 -94 192 -191 291 -209 21 -4 42 -12 47 -19 5 -6 13 -72
17 -147 l7 -136 -51 -31 c-95 -58 -196 -92 -335 -112 -133 -20 -301 13 -418
82 -52 30 -139 109 -139 126 0 6 19 20 43 31 l42 21 -43 -6 -42 -6 -22 49
c-25 56 -34 137 -19 175 9 25 15 27 72 30 42 2 64 7 67 17 4 11 -7 13 -58 7
l-62 -7 7 28 c20 81 144 227 250 294 69 44 79 62 27 53 -110 -19 -253 -146
-318 -283 -38 -78 -65 -110 -93 -112 -9 -1 -5 -4 9 -8 22 -6 24 -11 21 -59 -1
-28 6 -87 15 -129 10 -43 17 -80 17 -83 -1 -3 -5 -13 -8 -22 -4 -11 -3 -18 5
-18 6 0 44 -33 83 -73 117 -119 234 -164 450 -174 l128 -6 33 -52 c105 -163
318 -229 483 -149 66 32 117 90 152 174 l28 65 94 6 c96 6 173 26 244 61 46
24 131 91 160 128 11 14 31 37 45 51 32 32 50 120 50 238 0 75 2 82 23 91 21
8 21 9 -6 9 -23 1 -31 10 -58 66 -17 36 -48 88 -70 115 l-39 50 57 -6 c66 -6
125 6 288 62 61 21 117 40 125 42 8 3 -14 10 -50 15 -36 5 -66 10 -68 12 -2 2
4 20 12 40 20 47 21 183 2 246 -37 122 -113 212 -203 243 -66 23 -111 20 -171
-10z m134 -66 c28 -13 54 -60 54 -96 0 -40 -42 -90 -84 -97 -76 -15 -155 51
-142 119 14 75 97 111 172 74z m-731 -1349 c87 -31 95 -36 95 -60 0 -35 -46
-102 -96 -139 -128 -94 -354 -54 -430 76 -28 47 -26 59 8 67 13 3 68 21 123
41 56 20 101 32 103 26 6 -17 22 -11 22 8 0 10 2 21 6 24 8 8 61 -6 169 -43z"/>
<path d="M4070 7544 c-116 -50 -186 -169 -196 -334 -5 -68 -2 -97 14 -148 22
-70 26 -65 -53 -85 -68 -17 -68 -33 2 -42 32 -3 105 -18 163 -33 137 -34 264
-36 331 -5 132 60 188 270 120 449 -29 79 -99 160 -165 190 -60 28 -161 32
-216 8z m108 -68 c40 -21 62 -49 68 -88 5 -29 1 -41 -25 -71 -41 -46 -78 -54
-128 -29 -69 36 -95 118 -50 159 49 45 88 53 135 29z"/>
<path d="M6070 6701 c0 -5 7 -12 16 -15 21 -8 95 4 88 15 -7 12 -104 12 -104
0z"/>
<path d="M6380 6672 c0 -5 17 -12 38 -15 20 -3 47 -9 60 -13 12 -3 22 -2 22 4
0 5 -15 12 -32 15 -18 3 -45 9 -60 12 -17 4 -28 3 -28 -3z"/>
<path d="M4655 6660 c-8 -12 20 -24 35 -15 5 3 10 10 10 16 0 12 -37 12 -45
-1z"/>
<path d="M6518 6633 c6 -2 18 -2 25 0 6 3 1 5 -13 5 -14 0 -19 -2 -12 -5z"/>
<path d="M4235 6620 c-3 -5 -1 -10 4 -10 6 0 11 5 11 10 0 6 -2 10 -4 10 -3 0
-8 -4 -11 -10z"/>
<path d="M4168 6603 c6 -2 18 -2 25 0 6 3 1 5 -13 5 -14 0 -19 -2 -12 -5z"/>
<path d="M4105 6590 c-3 -5 -14 -10 -23 -10 -9 -1 -30 -7 -47 -15 l-30 -15 40
6 c22 3 44 10 50 15 5 5 17 9 27 9 10 0 18 5 18 10 0 6 -6 10 -14 10 -8 0 -18
-4 -21 -10z"/>
<path d="M3985 6540 c3 -5 8 -10 11 -10 2 0 4 5 4 10 0 6 -5 10 -11 10 -5 0
-7 -4 -4 -10z"/>
<path d="M6007 6534 c-13 -13 -7 -24 14 -24 11 0 19 5 17 12 -5 14 -22 21 -31
12z"/>
<path d="M4705 6460 c-4 -6 8 -10 30 -10 22 0 34 4 30 10 -3 6 -17 10 -30 10
-13 0 -27 -4 -30 -10z"/>
<path d="M6340 6350 c0 -5 5 -10 11 -10 5 0 7 5 4 10 -3 6 -8 10 -11 10 -2 0
-4 -4 -4 -10z"/>
<path d="M6382 6324 c10 -10 20 -16 22 -13 3 3 -5 11 -17 18 -21 13 -21 12 -5
-5z"/>
<path d="M5585 5410 c-44 -16 -125 -34 -179 -41 -98 -13 -119 -11 -316 17 -32
5 -33 4 -17 -9 10 -8 56 -27 102 -42 77 -25 93 -27 197 -22 75 3 128 11 158
23 54 21 150 82 150 95 0 11 1 12 -95 -21z"/>
<path d="M2990 5335 c0 -20 78 -77 167 -123 235 -121 547 -205 928 -252 132
-16 222 -17 236 -3 7 7 10 15 6 19 -6 7 -92 23 -257 49 -437 68 -685 138 -916
257 -86 44 -164 69 -164 53z"/>
<path d="M4222 4813 c-6 -11 -8 -23 -5 -27 3 -3 41 -6 83 -6 152 0 408 -43
570 -97 197 -64 390 -199 500 -349 94 -126 170 -338 169 -469 0 -68 3 -70 -69
40 -35 55 -81 95 -109 95 -19 0 -12 -36 14 -71 39 -54 84 -149 91 -194 8 -55
-15 -109 -55 -129 -33 -18 -61 -12 -61 13 0 9 -19 49 -41 89 -48 86 -142 184
-173 180 -33 -5 -24 -27 48 -122 65 -86 106 -154 106 -176 0 -16 -110 -12
-171 6 -62 19 -145 59 -222 108 -72 46 -218 118 -225 112 -3 -4 4 -16 16 -29
26 -27 28 -47 7 -47 -8 0 -23 -4 -33 -9 -60 -33 -406 -149 -533 -180 -106 -25
-303 -51 -384 -51 -104 0 -303 36 -380 69 -197 85 -288 145 -423 279 -57 56
-110 102 -118 102 -63 0 98 -201 241 -302 228 -159 496 -229 800 -207 225 16
405 63 827 219 l86 32 60 -41 c149 -101 283 -145 442 -146 139 0 176 11 229
71 94 107 120 239 82 426 -37 185 -124 343 -265 483 -218 217 -514 326 -927
342 -160 6 -167 5 -177 -14z"/>
<path d="M8283 3541 c-182 -164 -338 -364 -487 -624 -82 -143 -108 -197 -102
-213 12 -32 37 -8 96 94 78 133 234 372 308 472 79 105 224 284 238 292 13 8
47 58 40 58 -3 0 -45 -36 -93 -79z"/>
<path d="M2093 6603 c9 -2 25 -2 35 0 9 3 1 5 -18 5 -19 0 -27 -2 -17 -5z"/>
<path d="M708 3949 c-40 -23 -33 -135 23 -367 34 -140 83 -281 125 -361 31
-59 40 -66 64 -51 13 8 10 25 -24 117 -36 101 -95 283 -117 363 -17 60 -38
225 -30 233 17 17 215 -80 331 -162 101 -72 287 -263 389 -401 51 -69 99 -138
107 -153 8 -15 19 -25 24 -22 16 10 12 73 -6 108 -66 128 -278 375 -404 471
-143 110 -295 194 -396 221 -68 17 -64 17 -86 4z"/>
<path d="M1471 1205 c-81 -15 -121 -38 -135 -79 -13 -34 6 -48 99 -78 81 -26
246 -30 375 -9 97 15 135 37 135 76 0 24 -8 34 -43 53 -86 48 -280 64 -431 37z
m290 -29 c70 -15 159 -51 159 -64 0 -14 -106 -43 -201 -54 -67 -8 -113 -8
-174 0 -90 12 -188 48 -182 66 5 14 88 45 147 56 73 12 180 11 251 -4z"/>
<path d="M7670 1119 c-94 -8 -154 -26 -186 -56 -36 -33 -27 -54 36 -85 81 -41
191 -54 333 -39 134 13 174 24 205 58 27 30 27 38 2 63 -46 46 -221 73 -390
59z m211 -34 c100 -21 154 -41 154 -56 0 -20 -131 -61 -216 -66 -113 -8 -319
32 -319 62 0 11 109 57 165 68 45 10 148 6 216 -8z"/>
</g>
</svg>
